%TF.GenerationSoftware,KiCad,Pcbnew,9.0.3*%
%TF.CreationDate,2025-08-02T11:23:48+05:30*%
%TF.ProjectId,BatPad,42617450-6164-42e6-9b69-6361645f7063,rev?*%
%TF.SameCoordinates,Original*%
%TF.FileFunction,Soldermask,Bot*%
%TF.FilePolarity,Negative*%
%FSLAX46Y46*%
G04 Gerber Fmt 4.6, Leading zero omitted, Abs format (unit mm)*
G04 Created by KiCad (PCBNEW 9.0.3) date 2025-08-02 11:23:48*
%MOMM*%
%LPD*%
G01*
G04 APERTURE LIST*
%ADD10C,1.524000*%
%ADD11R,3.200000X2.000000*%
%ADD12C,2.000000*%
%ADD13R,2.000000X2.000000*%
%ADD14C,1.500000*%
%ADD15C,2.200000*%
%ADD16C,1.700000*%
%ADD17C,4.000000*%
G04 APERTURE END LIST*
D10*
%TO.C,U1*%
X40262756Y-56860625D03*
X40262756Y-54320625D03*
X40262756Y-51780625D03*
X40262756Y-49240625D03*
X40262756Y-46700625D03*
X40262756Y-44160625D03*
X40262756Y-41620625D03*
X55502756Y-41620625D03*
X55502756Y-44160625D03*
X55502756Y-46700625D03*
X55502756Y-49240625D03*
X55502756Y-51780625D03*
X55502756Y-54320625D03*
X55502756Y-56860625D03*
%TD*%
D11*
%TO.C,SW6*%
X29433750Y-17796875D03*
X29433750Y-6596875D03*
D12*
X21933750Y-12196875D03*
X21933750Y-14696875D03*
D13*
X21933750Y-9696875D03*
D14*
X36433750Y-14696875D03*
X36433750Y-9696875D03*
%TD*%
D11*
%TO.C,SW5*%
X67008750Y-17931250D03*
X67008750Y-6731250D03*
D12*
X59508750Y-12331250D03*
X59508750Y-14831250D03*
D13*
X59508750Y-9831250D03*
D14*
X74008750Y-14831250D03*
X74008750Y-9831250D03*
%TD*%
D15*
%TO.C,SW4*%
X44123750Y-7381875D03*
X50473750Y-4841875D03*
D16*
X53013750Y-9921875D03*
D17*
X47933750Y-9921875D03*
D16*
X42853750Y-9921875D03*
%TD*%
D15*
%TO.C,SW3*%
X63193750Y-26460000D03*
X69543750Y-23920000D03*
D16*
X72083750Y-29000000D03*
D17*
X67003750Y-29000000D03*
D16*
X61923750Y-29000000D03*
%TD*%
D15*
%TO.C,SW2*%
X44110000Y-26460000D03*
X50460000Y-23920000D03*
D16*
X53000000Y-29000000D03*
D17*
X47920000Y-29000000D03*
D16*
X42840000Y-29000000D03*
%TD*%
D15*
%TO.C,SW1*%
X25063750Y-26460000D03*
X31413750Y-23920000D03*
D16*
X33953750Y-29000000D03*
D17*
X28873750Y-29000000D03*
D16*
X23793750Y-29000000D03*
%TD*%
M02*
