M48
; DRILL file {KiCad 9.0.3} date 2025-07-31T03:50:44-0400
; FORMAT={-:-/ absolute / metric / decimal}
; #@! TF.CreationDate,2025-07-31T03:50:44-04:00
; #@! TF.GenerationSoftware,Kicad,Pcbnew,9.0.3
; #@! TF.FileFunction,MixedPlating,1,2
FMAT,2
METRIC
; #@! TA.AperFunction,Plated,PTH,ComponentDrill
T1C0.889
; #@! TA.AperFunction,Plated,PTH,ComponentDrill
T2C1.000
; #@! TA.AperFunction,Plated,PTH,ComponentDrill
T3C1.500
; #@! TA.AperFunction,NonPlated,NPTH,ComponentDrill
T4C1.700
; #@! TA.AperFunction,NonPlated,NPTH,ComponentDrill
T5C4.000
%
G90
G05
T1
X40.263Y-41.621
X40.263Y-44.161
X40.263Y-46.701
X40.263Y-49.241
X40.263Y-51.781
X40.263Y-54.321
X40.263Y-56.861
X55.503Y-41.621
X55.503Y-44.161
X55.503Y-46.701
X55.503Y-49.241
X55.503Y-51.781
X55.503Y-54.321
X55.503Y-56.861
T2
X21.934Y-9.697
X21.934Y-12.197
X21.934Y-14.697
X36.434Y-9.697
X36.434Y-14.697
X59.509Y-9.831
X59.509Y-12.331
X59.509Y-14.831
X74.009Y-9.831
X74.009Y-14.831
T3
X25.064Y-26.46
X31.414Y-23.92
X44.11Y-26.46
X44.124Y-7.382
X50.46Y-23.92
X50.474Y-4.842
X63.194Y-26.46
X69.544Y-23.92
T4
X23.794Y-29.0
X33.954Y-29.0
X42.84Y-29.0
X42.854Y-9.922
X53.0Y-29.0
X53.014Y-9.922
X61.924Y-29.0
X72.084Y-29.0
T5
X28.874Y-29.0
X47.92Y-29.0
X47.934Y-9.922
X67.004Y-29.0
T3
X28.784Y-6.597G85X30.084Y-6.597
G05
X28.784Y-17.797G85X30.084Y-17.797
G05
X66.359Y-6.731G85X67.659Y-6.731
G05
X66.359Y-17.931G85X67.659Y-17.931
G05
M30
