%TF.GenerationSoftware,KiCad,Pcbnew,9.0.3*%
%TF.CreationDate,2025-08-02T11:23:48+05:30*%
%TF.ProjectId,BatPad,42617450-6164-42e6-9b69-6361645f7063,rev?*%
%TF.SameCoordinates,Original*%
%TF.FileFunction,Copper,L2,Bot*%
%TF.FilePolarity,Positive*%
%FSLAX46Y46*%
G04 Gerber Fmt 4.6, Leading zero omitted, Abs format (unit mm)*
G04 Created by KiCad (PCBNEW 9.0.3) date 2025-08-02 11:23:48*
%MOMM*%
%LPD*%
G01*
G04 APERTURE LIST*
%TA.AperFunction,ComponentPad*%
%ADD10C,1.524000*%
%TD*%
%TA.AperFunction,ComponentPad*%
%ADD11R,3.200000X2.000000*%
%TD*%
%TA.AperFunction,ComponentPad*%
%ADD12C,2.000000*%
%TD*%
%TA.AperFunction,ComponentPad*%
%ADD13R,2.000000X2.000000*%
%TD*%
%TA.AperFunction,ComponentPad*%
%ADD14C,1.500000*%
%TD*%
%TA.AperFunction,ComponentPad*%
%ADD15C,2.200000*%
%TD*%
%TA.AperFunction,Conductor*%
%ADD16C,0.200000*%
%TD*%
G04 APERTURE END LIST*
D10*
%TO.P,U1,14,VBUS*%
%TO.N,+5V*%
X40262756Y-56860625D03*
%TO.P,U1,13,GND*%
%TO.N,GND*%
X40262756Y-54320625D03*
%TO.P,U1,12,3V3*%
%TO.N,unconnected-(U1-3V3-Pad12)*%
X40262756Y-51780625D03*
%TO.P,U1,11,GPIO3/MOSI*%
%TO.N,Net-(U1-GPIO3{slash}MOSI)*%
X40262756Y-49240625D03*
%TO.P,U1,10,GPIO4/MISO*%
%TO.N,Net-(U1-GPIO4{slash}MISO)*%
X40262756Y-46700625D03*
%TO.P,U1,9,GPIO2/SCK*%
%TO.N,Net-(U1-GPIO2{slash}SCK)*%
X40262756Y-44160625D03*
%TO.P,U1,8,GPIO1/RX*%
%TO.N,Net-(U1-GPIO1{slash}RX)*%
X40262756Y-41620625D03*
%TO.P,U1,7,GPIO0/TX*%
%TO.N,unconnected-(U1-GPIO0{slash}TX-Pad7)*%
X55502756Y-41620625D03*
%TO.P,U1,6,GPIO7/SCL*%
%TO.N,Net-(U1-GPIO7{slash}SCL)*%
X55502756Y-44160625D03*
%TO.P,U1,5,GPIO6/SDA*%
%TO.N,Net-(D1-DIN)*%
X55502756Y-46700625D03*
%TO.P,U1,4,GPIO29/ADC3/A3*%
%TO.N,Net-(U1-GPIO29{slash}ADC3{slash}A3)*%
X55502756Y-49240625D03*
%TO.P,U1,3,GPIO28/ADC2/A2*%
%TO.N,Net-(U1-GPIO28{slash}ADC2{slash}A2)*%
X55502756Y-51780625D03*
%TO.P,U1,2,GPIO27/ADC1/A1*%
%TO.N,Net-(U1-GPIO27{slash}ADC1{slash}A1)*%
X55502756Y-54320625D03*
%TO.P,U1,1,GPIO26/ADC0/A0*%
%TO.N,unconnected-(U1-GPIO26{slash}ADC0{slash}A0-Pad1)*%
X55502756Y-56860625D03*
%TD*%
D11*
%TO.P,SW6,MP*%
%TO.N,N/C*%
X29433750Y-17796875D03*
X29433750Y-6596875D03*
D12*
%TO.P,SW6,C,C*%
%TO.N,GND*%
X21933750Y-12196875D03*
%TO.P,SW6,B,B*%
%TO.N,Net-(U1-GPIO27{slash}ADC1{slash}A1)*%
X21933750Y-14696875D03*
D13*
%TO.P,SW6,A,A*%
%TO.N,Net-(U1-GPIO28{slash}ADC2{slash}A2)*%
X21933750Y-9696875D03*
D14*
%TO.P,SW6,*%
%TO.N,*%
X36433750Y-14696875D03*
X36433750Y-9696875D03*
%TD*%
D11*
%TO.P,SW5,MP*%
%TO.N,N/C*%
X67008750Y-17931250D03*
X67008750Y-6731250D03*
D12*
%TO.P,SW5,C,C*%
%TO.N,GND*%
X59508750Y-12331250D03*
%TO.P,SW5,B,B*%
%TO.N,Net-(U1-GPIO29{slash}ADC3{slash}A3)*%
X59508750Y-14831250D03*
D13*
%TO.P,SW5,A,A*%
%TO.N,Net-(U1-GPIO7{slash}SCL)*%
X59508750Y-9831250D03*
D14*
%TO.P,SW5,*%
%TO.N,*%
X74008750Y-14831250D03*
X74008750Y-9831250D03*
%TD*%
D15*
%TO.P,SW4,2,2*%
%TO.N,Net-(U1-GPIO1{slash}RX)*%
X44123750Y-7381875D03*
%TO.P,SW4,1,1*%
%TO.N,GND*%
X50473750Y-4841875D03*
%TD*%
%TO.P,SW3,2,2*%
%TO.N,Net-(U1-GPIO2{slash}SCK)*%
X63193750Y-26460000D03*
%TO.P,SW3,1,1*%
%TO.N,GND*%
X69543750Y-23920000D03*
%TD*%
%TO.P,SW2,2,2*%
%TO.N,Net-(U1-GPIO4{slash}MISO)*%
X44110000Y-26460000D03*
%TO.P,SW2,1,1*%
%TO.N,GND*%
X50460000Y-23920000D03*
%TD*%
%TO.P,SW1,2,2*%
%TO.N,Net-(U1-GPIO3{slash}MOSI)*%
X25063750Y-26460000D03*
%TO.P,SW1,1,1*%
%TO.N,GND*%
X31413750Y-23920000D03*
%TD*%
D16*
%TO.N,Net-(U1-GPIO28{slash}ADC2{slash}A2)*%
X23234750Y-15235767D02*
X23234750Y-10997875D01*
X39822446Y-55383625D02*
X22592750Y-38153929D01*
X51899756Y-55383625D02*
X39822446Y-55383625D01*
X22592750Y-15877767D02*
X23234750Y-15235767D01*
X55502756Y-51780625D02*
X51899756Y-55383625D01*
X22592750Y-38153929D02*
X22592750Y-15877767D01*
X23234750Y-10997875D02*
X21933750Y-9696875D01*
%TO.N,GND*%
X64817934Y-27861000D02*
X68758934Y-23920000D01*
X61792750Y-14615250D02*
X61792750Y-27040314D01*
X61792750Y-27040314D02*
X62613436Y-27861000D01*
X59508750Y-12331250D02*
X61792750Y-14615250D01*
X58041650Y-8129250D02*
X50460000Y-15710900D01*
X69543750Y-23920000D02*
X69543750Y-16697150D01*
X50460000Y-15710900D02*
X50460000Y-23920000D01*
X60975850Y-8129250D02*
X58041650Y-8129250D01*
X68758934Y-23920000D02*
X69543750Y-23920000D01*
X62613436Y-27861000D02*
X64817934Y-27861000D01*
X69543750Y-16697150D02*
X60975850Y-8129250D01*
%TO.N,Net-(U1-GPIO3{slash}MOSI)*%
X25063750Y-34040625D02*
X25063750Y-26460000D01*
X40263750Y-49240625D02*
X25063750Y-34040625D01*
%TO.N,Net-(U1-GPIO4{slash}MISO)*%
X39823440Y-42683625D02*
X40704060Y-42683625D01*
X40263750Y-46700625D02*
X39200750Y-45637625D01*
X40704060Y-42683625D02*
X44110000Y-39277685D01*
X39200750Y-43306315D02*
X39823440Y-42683625D01*
X44110000Y-39277685D02*
X44110000Y-26460000D01*
X39200750Y-45637625D02*
X39200750Y-43306315D01*
%TO.N,Net-(U1-GPIO2{slash}SCK)*%
X40263750Y-44160625D02*
X57472500Y-26951875D01*
X60809750Y-8530250D02*
X63193750Y-10914250D01*
X57472500Y-9265500D02*
X58207750Y-8530250D01*
X63193750Y-10914250D02*
X63193750Y-26460000D01*
X57472500Y-26951875D02*
X57472500Y-9265500D01*
X58207750Y-8530250D02*
X60809750Y-8530250D01*
%TO.N,Net-(U1-GPIO1{slash}RX)*%
X44123750Y-10350345D02*
X44123750Y-7381875D01*
X40263750Y-14210345D02*
X44123750Y-10350345D01*
X40263750Y-41620625D02*
X40263750Y-14210345D01*
%TO.N,Net-(U1-GPIO7{slash}SCL)*%
X55503750Y-44160625D02*
X58207750Y-41456625D01*
X58207750Y-41456625D02*
X58207750Y-11132250D01*
X58207750Y-11132250D02*
X59508750Y-9831250D01*
%TO.N,Net-(U1-GPIO29{slash}ADC3{slash}A3)*%
X60722750Y-44021625D02*
X60722750Y-16045250D01*
X55503750Y-49240625D02*
X60722750Y-44021625D01*
X60722750Y-16045250D02*
X59508750Y-14831250D01*
%TO.N,GND*%
X40262756Y-54320625D02*
X41325756Y-53257625D01*
X40703066Y-47763625D02*
X39822446Y-47763625D01*
X41325756Y-53257625D02*
X41325756Y-48386315D01*
X41325756Y-48386315D02*
X40703066Y-47763625D01*
X31413750Y-39354929D02*
X31413750Y-23920000D01*
X39822446Y-47763625D02*
X31413750Y-39354929D01*
%TD*%
M02*
