%TF.GenerationSoftware,KiCad,Pcbnew,9.0.3*%
%TF.CreationDate,2025-07-31T03:50:49-04:00*%
%TF.ProjectId,BatPad,42617450-6164-42e6-9b69-6361645f7063,rev?*%
%TF.SameCoordinates,Original*%
%TF.FileFunction,Soldermask,Top*%
%TF.FilePolarity,Negative*%
%FSLAX46Y46*%
G04 Gerber Fmt 4.6, Leading zero omitted, Abs format (unit mm)*
G04 Created by KiCad (PCBNEW 9.0.3) date 2025-07-31 03:50:49*
%MOMM*%
%LPD*%
G01*
G04 APERTURE LIST*
G04 Aperture macros list*
%AMRoundRect*
0 Rectangle with rounded corners*
0 $1 Rounding radius*
0 $2 $3 $4 $5 $6 $7 $8 $9 X,Y pos of 4 corners*
0 Add a 4 corners polygon primitive as box body*
4,1,4,$2,$3,$4,$5,$6,$7,$8,$9,$2,$3,0*
0 Add four circle primitives for the rounded corners*
1,1,$1+$1,$2,$3*
1,1,$1+$1,$4,$5*
1,1,$1+$1,$6,$7*
1,1,$1+$1,$8,$9*
0 Add four rect primitives between the rounded corners*
20,1,$1+$1,$2,$3,$4,$5,0*
20,1,$1+$1,$4,$5,$6,$7,0*
20,1,$1+$1,$6,$7,$8,$9,0*
20,1,$1+$1,$8,$9,$2,$3,0*%
G04 Aperture macros list end*
%ADD10R,1.600000X0.850000*%
%ADD11C,1.700000*%
%ADD12C,4.000000*%
%ADD13C,2.200000*%
%ADD14C,1.500000*%
%ADD15R,2.000000X2.000000*%
%ADD16C,2.000000*%
%ADD17R,3.200000X2.000000*%
%ADD18RoundRect,0.152400X-1.063600X-0.609600X1.063600X-0.609600X1.063600X0.609600X-1.063600X0.609600X0*%
%ADD19C,1.524000*%
%ADD20RoundRect,0.152400X1.063600X0.609600X-1.063600X0.609600X-1.063600X-0.609600X1.063600X-0.609600X0*%
G04 APERTURE END LIST*
D10*
%TO.C,D2*%
X78058750Y-35646875D03*
X78058750Y-37396875D03*
X81558750Y-37396875D03*
X81558750Y-35646875D03*
%TD*%
D11*
%TO.C,SW4*%
X42853750Y-9921875D03*
D12*
X47933750Y-9921875D03*
D11*
X53013750Y-9921875D03*
D13*
X50473750Y-4841875D03*
X44123750Y-7381875D03*
%TD*%
D10*
%TO.C,D1*%
X14458750Y-35596875D03*
X14458750Y-37346875D03*
X17958750Y-37346875D03*
X17958750Y-35596875D03*
%TD*%
D11*
%TO.C,SW2*%
X42840000Y-29000000D03*
D12*
X47920000Y-29000000D03*
D11*
X53000000Y-29000000D03*
D13*
X50460000Y-23920000D03*
X44110000Y-26460000D03*
%TD*%
D14*
%TO.C,SW6*%
X36433750Y-9696875D03*
X36433750Y-14696875D03*
D15*
X21933750Y-9696875D03*
D16*
X21933750Y-14696875D03*
X21933750Y-12196875D03*
D17*
X29433750Y-6596875D03*
X29433750Y-17796875D03*
%TD*%
D14*
%TO.C,SW5*%
X74008750Y-9831250D03*
X74008750Y-14831250D03*
D15*
X59508750Y-9831250D03*
D16*
X59508750Y-14831250D03*
X59508750Y-12331250D03*
D17*
X67008750Y-6731250D03*
X67008750Y-17931250D03*
%TD*%
D11*
%TO.C,SW3*%
X61923750Y-29000000D03*
D12*
X67003750Y-29000000D03*
D11*
X72083750Y-29000000D03*
D13*
X69543750Y-23920000D03*
X63193750Y-26460000D03*
%TD*%
D11*
%TO.C,SW1*%
X23793750Y-29000000D03*
D12*
X28873750Y-29000000D03*
D11*
X33953750Y-29000000D03*
D13*
X31413750Y-23920000D03*
X25063750Y-26460000D03*
%TD*%
D18*
%TO.C,U1*%
X56337756Y-56860625D03*
D19*
X55502756Y-56860625D03*
D18*
X56337756Y-54320625D03*
D19*
X55502756Y-54320625D03*
D18*
X56337756Y-51780625D03*
D19*
X55502756Y-51780625D03*
D18*
X56337756Y-49240625D03*
D19*
X55502756Y-49240625D03*
D18*
X56337756Y-46700625D03*
D19*
X55502756Y-46700625D03*
D18*
X56337756Y-44160625D03*
D19*
X55502756Y-44160625D03*
D18*
X56337756Y-41620625D03*
D19*
X55502756Y-41620625D03*
X40262756Y-41620625D03*
D20*
X39427756Y-41620625D03*
D19*
X40262756Y-44160625D03*
D20*
X39427756Y-44160625D03*
D19*
X40262756Y-46700625D03*
D20*
X39427756Y-46700625D03*
D19*
X40262756Y-49240625D03*
D20*
X39427756Y-49240625D03*
D19*
X40262756Y-51780625D03*
D20*
X39427756Y-51780625D03*
D19*
X40262756Y-54320625D03*
D20*
X39427756Y-54320625D03*
D19*
X40262756Y-56860625D03*
D20*
X39427756Y-56860625D03*
%TD*%
M02*
